<?xml version="1.0" encoding="UTF-8" standalone="no"?>
<!-- Created with Inkscape (http://www.inkscape.org/) -->

<svg
   xmlns:dc="http://purl.org/dc/elements/1.1/"
   xmlns:cc="http://creativecommons.org/ns#"
   xmlns:rdf="http://www.w3.org/1999/02/22-rdf-syntax-ns#"
   xmlns:svg="http://www.w3.org/2000/svg"
   xmlns="http://www.w3.org/2000/svg"
   xmlns:sodipodi="http://sodipodi.sourceforge.net/DTD/sodipodi-0.dtd"
   xmlns:inkscape="http://www.inkscape.org/namespaces/inkscape"
   id="svg2"
   version="1.1"
   inkscape:version="0.91 r13725"
   width="2666"
   height="2666"
   viewBox="0 0 2666 2666"
   sodipodi:docname="Aoki Clan Symbol.svg"
   inkscape:export-filename="C:\Users\craig\Pictures\SVG\Aoki Clan Symbol.png"
   inkscape:export-xdpi="90"
   inkscape:export-ydpi="90">
  <metadata
     id="metadata8">
    <rdf:RDF>
      <cc:Work
         rdf:about="">
        <dc:format>image/svg+xml</dc:format>
        <dc:type
           rdf:resource="http://purl.org/dc/dcmitype/StillImage" />
        <dc:title></dc:title>
      </cc:Work>
    </rdf:RDF>
  </metadata>
  <defs
     id="defs6" />
  <sodipodi:namedview
     pagecolor="#ffffff"
     bordercolor="#666666"
     borderopacity="1"
     objecttolerance="10"
     gridtolerance="10"
     guidetolerance="10"
     inkscape:pageopacity="0"
     inkscape:pageshadow="2"
     inkscape:window-width="640"
     inkscape:window-height="480"
     id="namedview4"
     showgrid="false"
     inkscape:zoom="0.21155289"
     inkscape:cx="1333"
     inkscape:cy="1333"
     inkscape:current-layer="svg2" />
  <g
     id="g4146">
    <circle
       r="1275"
       cy="1333"
       cx="1333"
       id="path4140"
       style="fill:#ffffff;fill-rule:evenodd;stroke:none;stroke-width:1px;stroke-linecap:butt;stroke-linejoin:miter;stroke-opacity:1" />
    <path
       inkscape:connector-curvature="0"
       id="path4138"
       d="m 1267.9373,2611.9567 c -0.4818,-0.4385 -11.6883,-1.5103 -24.9033,-2.3818 -28.2951,-1.8661 -45.0138,-3.3544 -67.5993,-6.0177 -9.09,-1.0719 -17.8796,-2.089 -19.5323,-2.2602 -14.6027,-1.5131 -99.5349,-17.2865 -106.6765,-19.8118 -2.4791,-0.8766 -6.5358,-1.8347 -9.0149,-2.1291 -2.4792,-0.2944 -12.6209,-2.7237 -22.5373,-5.3984 -9.9165,-2.6747 -19.38211,-5.1466 -21.03485,-5.493 -11.88794,-2.4917 -21.48571,-5.2718 -24.03978,-6.9635 -1.65274,-1.0946 -6.38557,-2.6572 -10.51741,-3.4724 -8.89234,-1.7543 -55.95346,-17.4166 -61.06023,-20.3212 -1.95068,-1.1095 -5.51878,-2.2882 -7.92916,-2.6194 -7.42499,-1.0202 -26.4352,-8.9002 -85.7667,-35.5515 -60.36266,-27.1146 -69.74019,-31.6608 -84.15126,-40.796 -4.9516,-3.1389 -11.03126,-6.536 -13.51036,-7.5492 -2.4791,-1.0131 -8.56417,-4.2519 -13.52238,-7.1972 -4.9582,-2.9453 -12.9447,-7.369 -17.74773,-9.8305 -4.80305,-2.4615 -10.21201,-5.5713 -12.01989,-6.9108 -1.80791,-1.3395 -10.72438,-7.2394 -19.81443,-13.111 -9.09004,-5.8715 -18.79141,-12.549 -21.5586,-14.8389 -2.76716,-2.2898 -7.64174,-5.4345 -10.83233,-6.9882 -5.8368,-2.8422 -51.14971,-35.038 -58.83845,-41.8059 -2.26896,-1.9973 -10.67003,-8.5529 -18.66896,-14.5681 -20.26413,-15.2386 -109.41659,-95.1651 -109.443,-98.1172 -0.012,-1.3314 -3.06421,-5.0437 -6.78286,-8.2495 -3.71865,-3.2059 -13.70385,-13.19 -22.18935,-22.1871 -8.48548,-8.997 -20.31756,-21.2125 -26.29352,-27.1457 -5.97593,-5.9331 -10.86535,-12.3926 -10.86535,-14.3545 0,-1.9618 -1.39467,-3.5669 -3.09927,-3.5669 -1.70463,0 -3.95848,-2.1532 -5.00857,-4.7849 -1.05012,-2.6316 -6.07855,-9.2777 -11.17435,-14.769 -12.51628,-13.4879 -28.79738,-33.8869 -28.79738,-36.081 0,-0.9807 -2.36641,-4.1556 -5.2587,-7.0554 -8.04482,-8.0658 -11.377,-12.1167 -13.65577,-16.6012 -1.14624,-2.2557 -7.50119,-11.9147 -14.12211,-21.4644 -6.62091,-9.5498 -12.03801,-17.937 -12.03801,-18.6382 0,-0.7013 -3.18392,-5.1917 -7.07533,-9.9787 -3.89144,-4.787 -12.34292,-17.9316 -18.78108,-29.2101 -6.43818,-11.2785 -12.55549,-21.1216 -13.59404,-21.8735 -5.29651,-3.8346 -64.63042,-121.1786 -67.009,-132.5229 -0.64042,-3.0544 -4.65672,-12.3207 -8.92507,-20.5916 -4.26835,-8.2709 -7.77387,-16.5927 -7.79003,-18.4928 -0.015,-1.9002 -1.33223,-5.5914 -2.92462,-8.2026 -4.0688,-6.6721 -29.15659,-76.5695 -31.63563,-88.1404 -1.12765,-5.2634 -4.6987,-17.5672 -7.93566,-27.3419 -5.425742,-16.3842 -14.133282,-49.2441 -21.011432,-79.2915 -7.03332,-30.7253 -20.60062,-115.9393 -22.2014,-139.4435 -0.97298,-14.2861 -2.47757,-30.8963 -3.34357,-36.9115 -2.83396,-19.6848 -3.78362,-165.4669 -1.18138,-181.3552 1.39681,-8.5285 3.37573,-28.4254 4.3976,-44.2153 2.41973,-37.3896 7.09111,-73.2087 12.65869,-97.0636 2.45684,-10.5267 5.00412,-22.8305 5.66065,-27.3419 3.01266,-20.7023 5.02503,-30.7278 7.80797,-38.8986 1.6527,-4.8524 3.55335,-12.2347 4.22364,-16.4051 1.02995,-6.408 7.18348,-29.71048 11.749652,-44.49408 0.69671,-2.2558 4.14831,-13.9444 7.6702,-25.9748 6.12061,-20.9075 19.04948,-58.3136 23.15319,-66.9876 1.06719,-2.2557 2.22738,-5.9469 2.57818,-8.2026 0.59041,-3.7965 19.03923,-49.0629 25.07286,-61.5192 1.45684,-3.0076 4.91478,-10.3899 7.68434,-16.4051 2.76957,-6.0152 6.85248,-14.6279 9.07319,-19.1393 2.22067,-4.5114 8.3055,-17.4305 13.52181,-28.709 5.21633,-11.2785 12.76527,-25.094 16.77547,-30.701 4.01022,-5.607 7.29129,-11.5691 7.29129,-13.2491 0,-3.8208 9.73086,-19.9852 12.77114,-21.2147 1.23955,-0.5013 2.25373,-2.0363 2.25373,-3.4112 0,-2.1741 9.78494,-18.8295 36.01204,-61.2979 3.71478,-6.0152 7.7449,-11.5519 8.95581,-12.3038 1.21089,-0.7519 5.87496,-7.3985 10.36463,-14.7702 8.34574,-13.7031 22.26102,-31.7518 26.79258,-34.7509 1.3901,-0.92 2.30662,-2.5293 2.03671,-3.5763 -0.4338,-1.6824 35.39807,-47.4218 48.53539,-61.9553 2.74219,-3.0337 9.50338,-10.619 15.02486,-16.8564 9.66463,-10.9178 32.9261,-34.6927 46.7134,-47.7445 3.64353,-3.4491 5.88734,-6.2712 4.9863,-6.2712 -2.74925,0 89.65318,-82.6482 105.46237,-94.3295 8.14084,-6.0152 18.34137,-14.0127 22.66784,-17.7722 4.32647,-3.7595 11.69742,-9.2962 16.37986,-12.3038 4.68244,-3.0076 11.26757,-8.2368 14.63362,-11.6203 3.36605,-3.3836 7.90461,-6.1519 10.08568,-6.1519 2.18104,0 3.96554,-1.0367 3.96554,-2.3037 0,-1.267 4.73283,-4.6227 10.51741,-7.4572 5.78457,-2.8345 10.5174,-5.9395 10.5174,-6.9001 0,-0.9605 8.45149,-6.8074 18.78108,-12.993 10.32959,-6.1856 20.47138,-12.5507 22.5373,-14.1447 2.06592,-1.594 3.75621,-2.0042 3.75621,-0.9117 0,1.0926 3.71866,-1.1262 8.26368,-4.9306 6.60925,-5.5323 38.79591,-23.6938 81.88551,-46.2044 2.4791,-1.2951 21.41043,-9.8964 42.06961,-19.114 20.65919,-9.2176 39.92858,-17.88218 42.82087,-19.25463 13.16259,-6.24592 16.59346,-7.71078 29.20112,-12.46788 7.38379,-2.78603 14.14498,-5.1122 15.02486,-5.16928 0.87992,-0.0571 6.33268,-2.10692 12.11726,-4.55523 32.95953,-13.95002 147.29846,-45.923475 164.22496,-45.923475 3.6871,0 7.4612,-1.11511 8.387,-2.47803 0.9257,-1.36292 8.7809,-3.41316 17.4559,-4.55609 8.675,-1.14293 17.8011,-2.35391 20.2802,-2.69108 2.4791,-0.33717 15.3254,-2.60096 28.5473,-5.03065 13.2218,-2.42969 31.4771,-5.07217 40.5671,-5.87216 9.09,-0.79999 19.9079,-2.02241 24.0398,-2.71647 28.9797,-4.86798 179.9133,-7.17324 217.8605,-3.32746 9.9164,1.00498 27.4955,2.56978 39.0647,3.47732 22.986,1.80316 41.725,3.83033 51.0845,5.52632 3.3055,0.59896 13.4472,2.23345 22.5373,3.63218 47.8262,7.35929 125.7955,24.21113 150.2486,32.473885 2.4791,0.83769 7.0446,1.96941 10.1456,2.51494 3.1009,0.54552 9.9291,2.84459 15.1737,5.10904 5.2445,2.26445 12.3426,4.60905 15.7733,5.21022 3.4308,0.60117 13.5056,3.8011 22.3885,7.11097 8.8829,3.30987 20.8835,7.74875 26.6681,9.86419 5.7846,2.11545 14.3457,5.65948 19.0246,7.87563 4.679,2.21616 10.4509,4.02938 12.8265,4.02938 2.3756,0 11.3936,3.21742 20.04,7.14982 8.6464,3.93241 21.8059,9.77674 29.2432,12.98734 7.4373,3.2107 14.1985,6.4528 15.0248,7.2047 1.4725,1.3398 22.6683,11.468 50.5649,24.1618 7.7232,3.5143 17.4227,9.2204 21.5545,12.6802 4.1318,3.4599 10.5544,7.1268 14.2724,8.1488 6.9267,1.904 56.6813,31.6629 76.3092,45.6416 6.0224,4.2891 12.3329,7.7983 14.0232,7.7983 1.6904,0 3.5241,0.9228 4.0751,2.0507 1.2213,2.5004 26.1021,20.6736 33.0656,24.1515 2.7606,1.3787 12.5719,8.9663 21.8029,16.8613 9.231,7.895 17.3971,14.3545 18.1469,14.3545 1.9464,0 16.635,11.9651 43.1823,35.1756 12.668,11.0757 26.0752,21.983 29.7939,24.2386 3.7186,2.2555 6.7611,5.007 6.7611,6.1144 0,1.1074 7.7754,9.2822 17.2786,18.1663 9.5033,8.884 24.0398,23.4698 32.3035,32.4128 8.2637,8.943 19.2921,20.6204 24.5077,25.9498 22.6134,23.107 34.9267,37.0797 37.8885,42.9943 1.7464,3.4877 4.1884,6.3413 5.4265,6.3413 1.2381,0 8.3373,8.3051 15.776,18.4558 7.4387,10.1506 18.1896,24.6077 23.8913,32.1267 28.0343,36.9719 43.5477,59.5905 54.6511,79.6813 4.274,7.7334 10.8495,18.1917 14.6123,23.2406 6.6617,8.9391 11.9039,19.0363 10.9946,21.1779 -0.2464,0.5838 0.7645,1.8141 2.2492,2.7342 1.4848,0.92 9.1784,13.9766 17.0971,29.0146 7.9187,15.0381 16.8345,31.6483 19.8127,36.9116 7.0232,12.4118 37.2154,80.1696 42.0324,94.3294 2.046,6.0153 5.4197,14.6279 7.4968,19.1394 3.5777,7.7707 23.4439,64.4208 28.7648,82.0256 1.3633,4.5114 4.5351,14.9696 7.0478,23.2406 2.5128,8.2709 5.3885,18.7291 6.3907,23.24058 1.0022,4.5114 4.3785,18.0456 7.5031,30.076 5.6956,21.931 13.4226,58.8221 16.6079,79.2914 0.936,6.0153 2.2654,14.0128 2.9542,17.7723 3.3902,18.505 7.367,50.0901 8.7784,69.7217 0.8651,12.0305 2.5383,29.871 3.719,39.6458 2.7495,22.7695 2.782,154.6604 0.048,188.6589 -1.1497,14.2861 -2.8577,35.8178 -3.7958,47.8483 -0.9382,12.0304 -2.9735,28.0254 -4.5228,35.5444 -1.5494,7.519 -4.2217,22.2836 -5.9384,32.8102 -3.1523,19.326 -4.8149,28.2906 -7.0999,38.2787 -0.6881,3.0076 -2.2261,12.2355 -3.4176,20.5064 -1.1914,8.2709 -3.6898,16.7651 -5.5516,18.876 -1.8619,2.1109 -2.9368,3.9564 -2.3884,4.1012 0.5484,0.1449 0.3324,3.3393 -0.4799,7.0988 -8.9773,41.5445 -11.9117,53.7247 -13.5028,56.0509 -1.0286,1.5038 -2.117,4.2128 -2.4187,6.0199 -2.3812,14.2627 -24.3866,80.0383 -33.2029,99.2463 -1.0355,2.2557 -2.2414,5.3316 -2.6801,6.8355 -0.866,2.9686 -11.1698,27.8315 -23.2294,56.0508 -4.1772,9.7747 -9.7331,21.4634 -12.3462,25.9748 -2.6134,4.5114 -4.7599,9.1427 -4.7701,10.2919 -0.03,3.1106 -38.4627,74.5551 -50.8628,94.545 -5.9167,9.5386 -15.0945,24.3032 -20.3953,32.8102 -5.3008,8.5071 -12.6696,20.6965 -16.375,27.0877 -3.7054,6.3911 -7.8201,11.6203 -9.1435,11.6203 -1.3234,0 -2.4061,1.2802 -2.4061,2.8449 0,3.2371 -12.355,19.9235 -15.7761,21.307 -1.2396,0.5013 -2.2537,2.0991 -2.2537,3.5507 0,2.7098 -35.0433,48.6233 -44.5921,58.4243 -2.9302,3.0076 -9.3084,10.3654 -14.1737,16.3508 -14.8153,18.2257 -31.3201,36.6421 -56.1597,62.6641 -28.6018,29.9633 -119.2467,110.4452 -140.4265,124.682 -5.5929,3.7595 -14.8158,10.6907 -20.4953,15.4026 -17.5184,14.5339 -21.5463,17.4077 -24.3996,17.4077 -1.515,0 -3.2053,0.9228 -3.7562,2.0506 -1.3191,2.7006 -25.6287,19.8229 -28.1438,19.8229 -1.0737,0 -7.4815,4.3063 -14.2394,9.5696 -6.758,5.2633 -13.4168,9.5697 -14.7974,9.5697 -1.3805,0 -11.8059,6.1519 -23.1674,13.6709 -11.3615,7.519 -21.4588,13.6709 -22.4383,13.6709 -1.4968,0 -31.5696,15.7676 -46.9615,24.6224 -5.2859,3.041 -86.1473,39.3924 -103.6716,46.6059 -58.8079,24.2068 -141.3912,50.4533 -184.8058,58.7346 -2.4791,0.4728 -5.1836,1.1413 -6.01,1.4854 -0.8263,0.3441 -2.8547,0.83 -4.5074,1.0798 -1.6528,0.2499 -16.5274,3.174 -33.0547,6.4981 -52.1409,10.4871 -56.7552,11.3044 -72.1194,12.7727 -8.2636,0.7897 -18.4054,2.0532 -22.5373,2.8077 -4.1318,0.7545 -16.9781,1.9274 -28.5472,2.6065 -11.5692,0.6792 -31.8527,2.4072 -45.0746,3.8402 -21.2313,2.301 -144.1273,3.555 -146.3927,1.4938 z m 651.5319,-311.8405 c 18.8659,-9.1191 58.7519,-32.7115 91.348,-54.0319 25.2869,-16.5396 30.0129,-19.8848 50.8714,-36.0081 5.9018,-4.5621 16.1395,-11.8866 22.7504,-16.2768 15.889,-10.5516 114.7442,-99.6095 127.91,-115.2331 5.6753,-6.7349 12.4713,-14.3303 15.1021,-16.8789 7.3499,-7.1199 48.461,-55.0644 59.0688,-68.887 18.6741,-24.3336 41.7637,-56.2335 47.497,-65.6205 3.2146,-5.2633 6.6644,-10.1849 7.6662,-10.9368 5.8491,-4.3901 59.078,-98.0368 76.9284,-135.3422 38.6981,-80.8737 73.0121,-182.8425 89.709,-266.5833 19.3881,-97.2378 28.7951,-223.2207 22.2536,-298.0264 -1.2495,-14.2862 -3.1447,-35.8179 -4.2115,-47.8483 -5.6544,-63.7525 -19.9449,-139.9678 -37.4251,-199.59568 -15.9309,-54.3431 -18.5933,-62.6798 -26.1958,-82.0256 -4.137,-10.5266 -10.7047,-27.752 -14.5946,-38.2786 -15.997,-43.288 -68.3926,-145.5347 -93.1743,-181.8235 -3.5945,-5.2633 -7.4421,-11.4152 -8.5503,-13.6709 -2.1357,-4.3468 -2.523,-4.9181 -22.1939,-32.7288 -21.7204,-30.7083 -38.0087,-52.1588 -50.6744,-66.734 -6.72,-7.7331 -13.4812,-16.052 -15.0249,-18.4864 -2.8091,-4.43 -13.005,-15.6785 -49.1529,-54.2275 -46.5762,-49.6701 -121.7189,-113.0962 -185.0368,-156.1852 -20.743,-14.116 -87.1515,-54.4244 -89.6647,-54.4244 -0.9272,0 -7.5005,-3.5298 -14.6075,-7.8441 -20.6784,-12.5528 -91.2989,-45.026 -125.6083,-57.758 -17.3537,-6.4399 -35.6089,-13.2156 -40.5671,-15.0572 -7.988,-2.967 -29.6271,-9.5585 -85.752,-26.1213 -18.2511,-5.386 -77.0044,-17.06636 -117.0837,-23.27666 -74.0194,-11.46937 -167.1385,-16.42703 -229.8804,-12.23885 -132.9718,8.87619 -208.9767,24.25525 -344.06937,69.62001 -16.01825,5.379 -120.54578,52.3914 -144.2387,64.8729 -33.30931,17.5476 -113.33456,67.9439 -129.51492,81.5628 -2.72143,2.2907 -9.43162,7.2407 -14.91158,11.0003 -45.17847,30.9946 -123.30512,102.2977 -172.65555,157.5759 -34.55259,38.7028 -67.55446,80.7064 -67.55446,85.9807 0,1.3861 -1.25298,2.5202 -2.78444,2.5202 -1.53142,0 -7.0054,6.4595 -12.16437,14.3545 -5.15897,7.895 -15.60723,23.5824 -23.21837,34.8609 -14.2782,21.1581 -64.17673,109.4682 -74.15601,131.241 -3.10164,6.7671 -7.33436,15.995 -9.40601,20.5064 -2.07169,4.5114 -5.95547,12.6948 -8.63065,18.1854 -2.67517,5.4906 -4.87229,11.6425 -4.88248,13.671 -0.009,2.0284 -1.89051,6.9526 -4.17853,10.9427 -2.28802,3.9901 -5.75449,11.9876 -7.70328,17.7722 -1.94878,5.7847 -4.65825,12.9783 -6.021,15.9859 -12.63663,27.8889 -35.00187,105.0201 -46.77607,161.31708 -4.08866,19.5494 -8.76361,41.6963 -10.38879,49.2154 -1.62518,7.519 -4.39435,27.2051 -6.15371,43.747 -1.75935,16.5418 -4.44702,41.1495 -5.97262,54.6837 -5.01052,44.4506 -3.46293,153.5326 3.04509,214.6337 3.28356,30.828 7.3108,62.2028 8.94938,69.7218 1.63858,7.519 3.71147,17.9773 4.60638,23.2406 3.95368,23.2524 13.11683,62.2007 21.54914,91.5952 l 5.49045,19.1394 69.11437,15.6802 c 112.3625,25.4921 221.26232,45.3771 280.96497,51.304 17.35372,1.7227 51.79671,5.4968 76.54002,8.3869 178.90944,20.8969 330.95361,10.6487 534.97191,-36.0586 120.225,-27.5239 216.207,-61.4236 270.367,-95.4906 29.3067,-18.434 79.9827,-66.3688 102.0132,-96.4952 32.2229,-44.064 53.4541,-89.5957 65.3373,-140.1198 6.0109,-25.557 6.9938,-37.2991 6.8463,-81.7906 -0.1571,-47.3779 -0.8749,-54.3165 -8.157,-78.8463 -16.6247,-55.9996 -55.2904,-115.6477 -100.704,-155.35228 -41.0802,-35.916 -85.2288,-60.018 -174.1183,-95.0563 -65.0977,-25.6601 -88.1338,-31.2227 -176.6093,-42.6462 -84.6722,-10.9324 -93.6645,-12.7056 -104.7818,-20.6625 -24.9628,-17.8663 12.6966,-47.3268 102.4553,-80.1495 103.2037,-37.7393 203.417,-52.9012 303.7644,-45.9586 117.8474,8.1533 215.9452,33.5594 311.5765,80.6943 144.8907,71.4139 249.0068,165.3056 329.5271,297.16678 85.5018,140.0189 122.7113,275.6072 122.7188,447.1766 0.01,217.6775 -44.8991,372.1442 -157.2286,540.7999 -41.7525,62.6887 -102.0537,127.8695 -173.6017,187.6496 -56.2497,46.998 -54.9404,45.5615 -30.9627,33.9715 z m -778.3172,-73.5494 c 30.2913,-7.0672 63.0476,-21.021 85.3673,-36.3652 17.778,-12.222 48.0795,-41.2041 48.0795,-45.9859 0,-2.0731 1.0448,-3.7692 2.3217,-3.7692 2.4763,0 7.6353,-8.625 19.6252,-32.8103 13.9583,-28.1555 15.6153,-37.1779 15.6153,-85.0236 0,-24.0355 -1.1667,-35.7201 -3.8617,-38.6743 -2.1239,-2.3283 -3.5682,-5.2856 -3.2097,-6.5717 1.217,-4.3653 -7.562,-26.9143 -13.0297,-33.4668 -2.9927,-3.5863 -5.4412,-7.5424 -5.4412,-8.7911 0,-10.5666 -41.7525,-53.7466 -63.1863,-65.3468 -6.9465,-3.7595 -15.1788,-8.9886 -18.2939,-11.6203 -3.1152,-2.6316 -7.5797,-4.7848 -9.921,-4.7848 -2.3414,0 -4.7078,-0.9228 -5.2587,-2.0506 -1.6217,-3.3198 -41.3527,-15.0396 -56.329,-16.6157 -17.8459,-1.8782 -55.5384,-1.8621 -70.8816,0.03 -24.9518,3.0774 -62.6417,17.4737 -87.14416,33.2862 -18.17711,11.7305 -46.11645,39.2526 -58.42938,57.5567 -6.95291,10.3361 -16.73836,30.0003 -21.74543,43.6983 -8.02306,21.949 -9.15546,28.9627 -9.53907,59.0829 -0.39822,31.2652 2.05609,47.9121 9.87623,66.9876 5.79578,14.1375 23.07561,44.696 30.02945,53.1055 7.83823,9.4791 42.19937,41.2239 44.62141,41.2239 0.72432,0 6.24439,3.4836 12.26681,7.7413 36.14224,25.5518 113.18104,39.7296 158.46794,29.1637 z m 614.5413,-245.8452 c 56.4617,-15.5931 103.9321,-60.8014 116.6764,-111.1164 4.6342,-18.2957 3.842,-58.4022 -1.5259,-77.2505 -15.0611,-52.8854 -63.7858,-95.955 -124.588,-110.1281 -51.1171,-11.9155 -118.5393,6.6328 -154.0273,42.3741 -30.0846,30.2993 -43.9131,59.365 -46.2981,97.313 -2.4732,39.3514 7.2278,71.3599 30.7515,101.4651 18.647,23.8639 55.6137,48.1773 86.9549,57.1909 16.7986,4.8313 74.7663,4.9269 92.0565,0.1518 z m 264.7941,-453.3713 c 62.1485,-25.9763 88.5669,-94.9497 57.0975,-149.0703 -53.5617,-92.1144 -199.4524,-71.0708 -219.9388,31.7244 -10.5504,52.9389 24.5833,105.0809 82.5542,122.5188 19.858,5.9734 59.7722,3.4017 80.2871,-5.1729 z m -125.7103,-396.4099 c 17.9881,-4.8358 41.5754,-27.1175 48.3488,-45.6726 17.7901,-48.7347 -20.4817,-97.35358 -76.5474,-97.24258 -15.98,0.032 -22.505,1.5234 -35.8773,8.2025 -16.7413,8.36188 -31.6421,24.12078 -38.2672,40.47088 -6.1392,15.151 -4.7395,39.9269 3.1237,55.2912 7.9414,15.5173 29.7566,34.5054 44.6223,38.8395 13.7612,4.0122 39.8884,4.0654 54.5971,0.1113 z"
       style="fill:#010101" />
  </g>
</svg>
